<?xml version="1.0" encoding="UTF-8"?>
<svg xmlns="http://www.w3.org/2000/svg" xmlns:xlink="http://www.w3.org/1999/xlink" width="50px" height="50px" viewBox="0 0 50 50" version="1.1">
<g id="surface1">
<path style=" stroke:none;fill-rule:nonzero;fill:rgb(95.686275%,34.901961%,11.764706%);fill-opacity:1;" d="M 50.15625 25.097656 C 50.15625 38.949219 38.933594 50.183594 25.070312 50.183594 C 11.230469 50.183594 0 38.949219 0 25.097656 C 0 11.25 11.230469 0 25.070312 0 C 38.933594 0 50.15625 11.25 50.15625 25.097656 "/>
<path style=" stroke:none;fill-rule:evenodd;fill:rgb(100%,100%,100%);fill-opacity:1;" d="M 35.542969 33.9375 C 35.519531 35.199219 35.191406 35.558594 33.929688 35.558594 C 30.976562 35.558594 28.015625 35.558594 25.058594 35.558594 C 22.125 35.558594 19.171875 35.558594 16.210938 35.558594 C 14.972656 35.558594 14.621094 35.199219 14.621094 33.9375 C 14.621094 30.6875 14.632812 27.367188 14.574219 24.070312 C 14.574219 23.136719 14.832031 22.925781 15.695312 22.960938 C 16.933594 23.042969 16.957031 22.996094 16.820312 24.199219 C 16.335938 28.394531 19.234375 32.449219 23.363281 33.257812 C 27.617188 34.074219 31.875 31.527344 33.042969 27.449219 C 33.394531 26.175781 33.496094 24.816406 33.230469 23.554688 C 33.136719 23.089844 33.253906 22.996094 33.675781 22.996094 C 35.542969 22.855469 35.542969 22.820312 35.542969 24.761719 C 35.542969 27.789062 35.542969 30.875 35.542969 33.9375 Z M 25.09375 19.839844 C 27.921875 19.839844 30.355469 22.28125 30.308594 25.097656 C 30.285156 27.988281 27.875 30.382812 25 30.335938 C 22.148438 30.265625 19.742188 27.867188 19.8125 25.027344 C 19.878906 22.1875 22.265625 19.839844 25.09375 19.839844 Z M 32.855469 14.613281 C 35.542969 14.613281 35.542969 14.613281 35.542969 17.300781 C 35.542969 19.933594 35.542969 19.933594 32.902344 19.933594 C 30.238281 19.933594 30.238281 19.933594 30.238281 17.265625 C 30.238281 14.613281 30.238281 14.613281 32.855469 14.613281 Z M 35.054688 11.5625 C 28.414062 11.5625 21.75 11.5625 15.113281 11.5625 C 12.738281 11.5625 11.511719 12.800781 11.511719 15.1875 C 11.511719 18.472656 11.511719 21.769531 11.511719 25.097656 C 11.511719 28.394531 11.511719 31.753906 11.511719 35.082031 C 11.511719 37.371094 12.773438 38.632812 14.996094 38.632812 C 21.703125 38.632812 28.367188 38.632812 35.054688 38.632812 C 37.367188 38.632812 38.640625 37.371094 38.640625 35.042969 C 38.640625 28.394531 38.640625 21.769531 38.640625 15.101562 C 38.640625 12.800781 37.367188 11.5625 35.054688 11.5625 "/>
</g>
</svg>
