<?xml version="1.0" encoding="UTF-8"?>
<svg xmlns="http://www.w3.org/2000/svg" xmlns:xlink="http://www.w3.org/1999/xlink" width="15px" height="15px" viewBox="0 0 15 15" version="1.1">
<g id="surface1">
<path style=" stroke:none;fill-rule:nonzero;fill:rgb(17.647059%,66.666667%,88.235294%);fill-opacity:1;" d="M 15 7.5 C 15 11.640625 11.640625 15 7.5 15 C 3.359375 15 0 11.640625 0 7.5 C 0 3.359375 3.359375 0 7.5 0 C 11.640625 0 15 3.359375 15 7.5 Z M 15 7.5 "/>
<path style=" stroke:none;fill-rule:nonzero;fill:rgb(100%,100%,100%);fill-opacity:1;" d="M 12.308594 4.515625 C 11.957031 4.671875 11.574219 4.78125 11.175781 4.828125 C 11.582031 4.582031 11.894531 4.195312 12.042969 3.734375 C 11.65625 3.964844 11.230469 4.128906 10.789062 4.214844 C 10.429688 3.832031 9.917969 3.59375 9.351562 3.59375 C 8.261719 3.59375 7.378906 4.476562 7.378906 5.566406 C 7.378906 5.71875 7.394531 5.871094 7.429688 6.015625 C 5.789062 5.933594 4.335938 5.148438 3.359375 3.953125 C 3.191406 4.246094 3.09375 4.582031 3.09375 4.945312 C 3.09375 5.628906 3.441406 6.234375 3.972656 6.585938 C 3.660156 6.578125 3.351562 6.492188 3.078125 6.339844 L 3.078125 6.367188 C 3.078125 7.320312 3.757812 8.117188 4.660156 8.300781 C 4.496094 8.34375 4.320312 8.371094 4.140625 8.371094 C 4.011719 8.371094 3.890625 8.355469 3.769531 8.335938 C 4.019531 9.117188 4.75 9.6875 5.613281 9.703125 C 4.9375 10.234375 4.085938 10.550781 3.160156 10.550781 C 3.003906 10.550781 2.84375 10.539062 2.691406 10.519531 C 3.5625 11.082031 4.601562 11.40625 5.714844 11.40625 C 9.34375 11.40625 11.328125 8.402344 11.328125 5.792969 C 11.328125 5.707031 11.328125 5.625 11.324219 5.539062 C 11.710938 5.257812 12.042969 4.914062 12.308594 4.515625 Z M 12.308594 4.515625 "/>
</g>
</svg>
